# xmcd CD database file
#
# Track frame offsets:
#	150
#	33960
#	63688
#	92970
#	119933
#	136676
#
# Disc length: 2395 seconds
#
# Revision: 0
# Processed by: cddbd v1.5.2PL0 Copyright (c) Steve Scherf et al.
# Submitted via: CDex 1.70beta2
#
DISCID=56095906
DTITLE=Hal Galper Quartet - Ivory Forest
DYEAR=1979
DGENRE=Jazz
TTITLE0=Ivory Forest
TTITLE1=Continuity
TTITLE2=My Dog Spot
TTITLE3=Monk´s Mood
TTITLE4=Yellow Days
TTITLE5=Rapunzel´s Luncheonette
EXTD=YEAR: 1979
EXTT0=
EXTT1=
EXTT2=
EXTT3=
EXTT4=
EXTT5=
PLAYORDER=
